# xmcd
#
# Track frame offsets:
#	165
#	9112
#	16837
#	25775
#	36077
#	46285
#	62547
#	72215
#	90520
#	105655
#	120565
#	132182
#	143817
#	153540
#	163325
#	178647
#	195640
#	208647
#	223725
#
# Disc length: 3131 seconds
#
# Revision: 0
# Processed by: cddbd v1.5.1PL0 Copyright (c) Steve Scherf et al.
# Submitted via: audiograbber 1.83.01
#
DISCID=fc0c3913
DTITLE=Ricky Nelson - Greatest Hits Live
DYEAR=1900
DGENRE=
TTITLE0=Stood Up
TTITLE1=Waitin' in school
TTITLE2=I Got A Feeling
TTITLE3=Travellin'Man
TTITLE4=Hello Mary Lou
TTITLE5=Garden Party
TTITLE6=Do You Know  What I Mean
TTITLE7=That' Alright Ma ma
TTITLE8=Believe What You Say
TTITLE9=It's Late
TTITLE10=Never Be Anyone Else But You
TTITLE11=Fools Rush In
TTITLE12=It's Up To You
TTITLE13=Poor Little Fool
TTITLE14=Milk Cow Blues Boogie
TTITLE15=Honky Tonk Woman
TTITLE16=My Bucket's Got A Hole In It
TTITLE17=Boppin' The Blues
TTITLE18=Lonesome Town
EXTD=
EXTT0=
EXTT1=
EXTT2=
EXTT3=
EXTT4=
EXTT5=
EXTT6=
EXTT7=
EXTT8=
EXTT9=
EXTT10=
EXTT11=
EXTT12=
EXTT13=
EXTT14=
EXTT15=
EXTT16=
EXTT17=
EXTT18=
PLAYORDER=
